<svg xmlns="http://www.w3.org/2000/svg" width="24" height="24" viewBox="0 0 24 24" fill="none" stroke="currentColor" stroke-width="2" stroke-linecap="round" stroke-linejoin="round"><title>Discord</title><path d="M9 10a1 1 0 1 0 0 2 1 1 0 0 0 0-2zm6 0a1 1 0 1 0 0 2 1 1 0 0 0 0-2z"/><path d="M18.88 5.09A17.65 17.65 0 0 0 14.34 3.7a1 1 0 0 0-.61.34 11.23 11.23 0 0 0-.58 1.15 15.93 15.93 0 0 0-4.3 0 12.63 12.63 0 0 0-.58-1.15 1 1 0 0 0-.61-.34 17.65 17.65 0 0 0-4.54 1.39 1 1 0 0 0-.42.36C.68 12.92.1 16.87.5 20.78a1 1 0 0 0,.37.7 18 18 0 0 0 5.37 2.76 1 1 0 0 0 1.07-.37c.43-.58.81-1.2 1.14-1.84a1 1 0 0 0-.49-1.4 11.45 11.45 0 0 1-1.67-.82 1 1 0 0 1-.13-1.63 1 1 0 0 1 .42-.23 11.83 11.83 0 0 0 11 0 1 1 0 0 1,.42.23 1 1 0 0 1-.13 1.63 12.06 12.06 0 0 1-1.67.82 1 1 0 0 0-.49 1.4c.33.64.71 1.26 1.14 1.84a1 1 0 0 0 1.07.37 18 18 0 0 0 5.37-2.76 1 1 0 0 0,.37-.7c.4-3.91-.18-7.86-2.31-15.33a1 1 0 0 0-.42-.36z"/></svg>
