<svg width="479" height="512" viewBox="0 0 479 512" fill="none" xmlns="http://www.w3.org/2000/svg">
<path d="M149.179 36.5616C199.491 -12.1872 279.509 -12.1872 329.821 36.5616C345.217 51.4783 364.079 62.3491 384.718 68.1996C452.167 87.3193 492.176 156.493 475.039 224.362C469.796 245.129 469.796 266.871 475.039 287.638C492.176 355.507 452.167 424.681 384.718 443.8C364.079 449.651 345.217 460.522 329.821 475.438C279.509 524.187 199.491 524.187 149.179 475.438C133.783 460.522 114.921 449.651 94.2821 443.8C26.8329 424.681 -13.1761 355.507 3.96073 287.638C9.20448 266.871 9.20448 245.129 3.96073 224.362C-13.1761 156.493 26.8329 87.3193 94.2822 68.1996C114.921 62.3491 133.783 51.4783 149.179 36.5616Z" fill="#2E4578" style="fill:#2E4578;fill:color(display-p3 0.1804 0.2706 0.4706);fill-opacity:1;"/>
<path d="M277.179 296.5C285.231 296.5 292.954 299.699 298.648 305.393C304.342 311.087 307.54 318.809 307.54 326.862V339.255C307.542 347.001 305.12 354.553 300.615 360.854C279.757 390.055 245.67 404.5 199.5 404.5C153.317 404.5 119.256 390.028 98.439 360.814C93.9587 354.523 91.552 346.991 91.554 339.268V326.848C91.5576 318.803 94.7542 311.088 100.442 305.397C106.13 299.707 113.843 296.507 121.888 296.5H277.179ZM335.229 112.954C337.56 111.623 340.324 111.272 342.914 111.978C345.504 112.684 347.707 114.39 349.039 116.72C363.882 142.689 371.668 172.09 371.625 202C371.625 232.429 363.714 261.724 348.891 287.536C348.26 288.744 347.391 289.812 346.336 290.676C345.282 291.541 344.064 292.183 342.756 292.565C341.447 292.947 340.075 293.061 338.721 292.9C337.368 292.739 336.061 292.306 334.878 291.628C333.696 290.949 332.663 290.039 331.841 288.952C331.019 287.864 330.425 286.622 330.094 285.299C329.764 283.977 329.704 282.601 329.918 281.255C330.133 279.909 330.617 278.62 331.341 277.465C344.514 254.499 351.422 228.476 351.375 202C351.375 175.229 344.449 149.485 331.462 126.764C330.131 124.433 329.78 121.669 330.487 119.079C331.193 116.49 332.899 114.286 335.229 112.954ZM199.5 134.554C217.402 134.554 234.571 141.666 247.23 154.324C259.888 166.983 267 184.152 267 202.054C267 219.956 259.888 237.125 247.23 249.784C234.571 262.442 217.402 269.554 199.5 269.554C181.598 269.554 164.429 262.442 151.77 249.784C139.112 237.125 132 219.956 132 202.054C132 184.152 139.112 166.983 151.77 154.324C164.429 141.666 181.598 134.554 199.5 134.554ZM288.438 139.9C290.771 138.57 293.536 138.221 296.126 138.93C298.716 139.639 300.918 141.347 302.248 143.68C312.356 161.453 317.656 181.554 317.625 202C317.625 222.763 312.252 242.77 302.181 260.428C301.528 261.594 300.651 262.62 299.6 263.445C298.549 264.271 297.345 264.88 296.058 265.238C294.77 265.596 293.424 265.695 292.098 265.53C290.772 265.366 289.491 264.94 288.33 264.278C287.17 263.616 286.151 262.731 285.334 261.673C284.517 260.616 283.917 259.407 283.57 258.117C283.222 256.826 283.133 255.48 283.308 254.155C283.484 252.83 283.919 251.553 284.59 250.397C292.996 235.654 297.403 218.971 297.375 202C297.404 185.066 293.016 168.417 284.645 153.697C283.32 151.364 282.975 148.6 283.687 146.014C284.398 143.427 286.107 141.228 288.438 139.9Z" fill="white" style="fill:white;fill-opacity:1;"/>
</svg>
